<?xml version="1.0" encoding="UTF-8"?>
<!DOCTYPE svg PUBLIC "-//W3C//DTD SVG 1.1//EN" "http://www.w3.org/Graphics/SVG/1.1/DTD/svg11.dtd">
<svg xmlns="http://www.w3.org/2000/svg" version="1.1" width="325px" height="183px" style="shape-rendering:geometricPrecision; text-rendering:geometricPrecision; image-rendering:optimizeQuality; fill-rule:evenodd; clip-rule:evenodd" xmlns:xlink="http://www.w3.org/1999/xlink">
<g><path style="opacity:0.999" fill="#ffffff" d="M 102.5,142.5 C 101.243,143.623 101.576,144.289 103.5,144.5C 101.334,146.837 99.3336,149.337 97.5,152C 92.769,153.061 88.769,155.394 85.5,159C 80.4309,162.335 75.5975,162.168 71,158.5C 70.3131,156.432 70.4798,154.432 71.5,152.5C 47.4976,151.726 23.4976,151.059 -0.5,150.5C -0.5,148.833 -0.5,147.167 -0.5,145.5C 25.1698,145.037 50.8364,144.37 76.5,143.5C 79.7565,139.312 82.7565,134.979 85.5,130.5C 86.1667,130.5 86.5,130.167 86.5,129.5C 87.5,129.167 88.1667,128.5 88.5,127.5C 91.5265,121.628 95.1932,116.128 99.5,111C 66.1566,110.759 32.8233,110.259 -0.5,109.5C -0.5,107.167 -0.5,104.833 -0.5,102.5C 29.5489,101.857 59.5489,101.19 89.5,100.5C 92.1459,101.164 94.9792,101.498 98,101.5C 101.252,101.481 104.085,100.814 106.5,99.5C 109.491,95.0167 111.825,90.1834 113.5,85C 112.422,78.2522 110.088,72.0856 106.5,66.5C 104.443,62.2708 101.777,58.4375 98.5,55C 81.5281,53.684 64.5281,53.184 47.5,53.5C 53.979,52.5093 60.6457,52.176 67.5,52.5C 76.8571,52.8316 86.1904,52.4983 95.5,51.5C 95.3764,50.8933 95.0431,50.56 94.5,50.5C 89.5393,47.2305 84.2059,46.5638 78.5,48.5C 78.469,44.4029 80.469,41.9029 84.5,41C 91.0362,38.7818 97.3696,39.1152 103.5,42C 115.313,51.8133 123.479,63.98 128,78.5C 138.532,59.9608 151.365,43.1274 166.5,28C 172.358,23.6399 178.692,22.6399 185.5,25C 169.318,48.3535 154.652,72.6869 141.5,98C 144.72,110.937 150.22,122.77 158,133.5C 160.346,136.505 163.346,138.505 167,139.5C 170.69,137.993 174.524,136.993 178.5,136.5C 178.21,140.961 175.877,143.795 171.5,145C 164.332,145.988 157.332,145.322 150.5,143C 147.333,141.167 144.833,138.667 143,135.5C 137.819,126.825 133.319,117.825 129.5,108.5C 120.446,119.877 111.446,131.21 102.5,142.5 Z"/></g>
<g><path style="opacity:0.998" fill="#ffffff" d="M 207.5,26.5 C 224.837,26.3334 242.17,26.5001 259.5,27C 268.229,29.3946 274.062,34.8946 277,43.5C 277.667,56.1667 277.667,68.8333 277,81.5C 273.243,93.0551 265.243,99.0551 253,99.5C 242.191,98.353 231.357,98.353 220.5,99.5C 210.751,100.434 202.251,97.7673 195,91.5C 192.806,88.4456 191.139,85.1122 190,81.5C 189.333,68.8333 189.333,56.1667 190,43.5C 193.118,34.8798 198.951,29.2131 207.5,26.5 Z M 232.5,48.5 C 232.634,50.2915 232.301,51.9582 231.5,53.5C 220.923,48.3102 213.423,51.3102 209,62.5C 207.543,66.7411 207.209,71.0745 208,75.5C 208.5,77.3333 209.667,78.5 211.5,79C 214.5,79.6667 217.5,79.6667 220.5,79C 224.645,76.9273 228.645,74.9273 232.5,73C 225.63,83.8459 216.297,86.8459 204.5,82C 199.911,77.0335 198.411,71.2002 200,64.5C 206.152,49.0051 216.985,43.6718 232.5,48.5 Z M 267.5,46.5 C 268.552,46.3505 269.552,46.5172 270.5,47C 267.602,50.9046 265.102,55.0713 263,59.5C 259.333,68.5 255.667,77.5 252,86.5C 248.93,90.7071 245.097,91.5405 240.5,89C 238.683,87.2002 237.516,85.0336 237,82.5C 234.122,71.4916 233.956,60.4916 236.5,49.5C 237.868,48.4063 239.035,48.7397 240,50.5C 241.083,59.8183 242.083,69.1516 243,78.5C 243.17,80.7148 243.837,82.7148 245,84.5C 249.426,74.6495 254.093,64.9828 259,55.5C 261.362,51.9734 264.196,48.9734 267.5,46.5 Z"/></g>
<g><path style="opacity:0.625" fill="#ffffff" d="M 94.5,50.5 C 95.0431,50.56 95.3764,50.8933 95.5,51.5C 86.1904,52.4983 76.8571,52.8316 67.5,52.5C 67.5,52.1667 67.5,51.8333 67.5,51.5C 76.6822,51.8266 85.6822,51.4933 94.5,50.5 Z"/></g>
<g><path style="opacity:0.38" fill="#ffffff" d="M 232.5,48.5 C 233.139,49.0968 233.472,49.9302 233.5,51C 233.316,52.3756 232.649,53.2089 231.5,53.5C 232.649,53.2089 233.316,52.3756 233.5,51C 233.472,49.9302 233.139,49.0968 232.5,48.5 Z"/></g>
<g><path style="opacity:0.475" fill="#ffffff" d="M 67.5,51.5 C 67.5,51.8333 67.5,52.1667 67.5,52.5C 60.6457,52.176 53.979,52.5093 47.5,53.5C 40.4921,53.6663 33.4921,53.4996 26.5,53C 40.1467,51.9275 53.8134,51.4275 67.5,51.5 Z"/></g>
<g><path style="opacity:0.192" fill="#ffffff" d="M 80.5,67.5 C 88.9839,66.507 97.6506,66.1736 106.5,66.5C 106.795,68.7354 106.461,70.7354 105.5,72.5C 105.5,70.8333 105.5,69.1667 105.5,67.5C 97.1667,67.5 88.8333,67.5 80.5,67.5 Z"/></g>
<g><path style="opacity:0.999" fill="#ffffff" d="M -0.5,67.5 C 26.5,67.5 53.5,67.5 80.5,67.5C 88.8333,67.5 97.1667,67.5 105.5,67.5C 105.5,69.1667 105.5,70.8333 105.5,72.5C 70.1667,72.5 34.8333,72.5 -0.5,72.5C -0.5,70.8333 -0.5,69.1667 -0.5,67.5 Z"/></g>
<g><path style="opacity:0.175" fill="#ffffff" d="M 106.5,99.5 C 104.085,100.814 101.252,101.481 98,101.5C 94.9792,101.498 92.1459,101.164 89.5,100.5C 95.2586,100.786 100.925,100.452 106.5,99.5 Z"/></g>
<g><path style="opacity:0.999" fill="#ffffff" d="M 190.5,107.5 C 190.338,109.527 190.505,111.527 191,113.5C 191.717,112.956 192.217,112.289 192.5,111.5C 194.573,108.262 197.406,105.929 201,104.5C 203.993,106.941 207.493,108.108 211.5,108C 212.893,109.171 213.727,110.671 214,112.5C 219.599,108.199 224.766,108.532 229.5,113.5C 226.553,114.321 223.553,114.821 220.5,115C 218.714,115.785 217.214,116.951 216,118.5C 213.874,123.332 212.207,128.332 211,133.5C 208.806,136.017 206.806,135.684 205,132.5C 204.833,131.167 204.667,129.833 204.5,128.5C 206.462,122.243 208.129,115.91 209.5,109.5C 208.167,109.5 206.833,109.5 205.5,109.5C 204.241,118.266 199.408,122.933 191,123.5C 189.669,128.15 188.335,132.817 187,137.5C 183.17,144.348 181.336,143.681 181.5,135.5C 182.538,125.682 184.371,116.016 187,106.5C 188.756,105.015 189.923,105.348 190.5,107.5 Z M 200.5,110.5 C 199.401,115.442 196.401,117.942 191.5,118C 193.468,114.194 196.468,111.694 200.5,110.5 Z"/></g>
<g><path style="opacity:0.998" fill="#ffffff" d="M 246.5,121.5 C 249.925,124.546 253.925,126.546 258.5,127.5C 259.672,127.081 260.672,126.415 261.5,125.5C 258.138,122.06 254.638,118.727 251,115.5C 249.015,110.817 250.515,107.65 255.5,106C 259.5,105.333 263.5,105.333 267.5,106C 269.651,106.265 271.318,107.265 272.5,109C 272.355,109.772 272.022,110.439 271.5,111C 268.464,111.638 265.464,111.472 262.5,110.5C 260.893,110.637 259.559,111.304 258.5,112.5C 261.844,115.345 265.011,118.345 268,121.5C 269.948,129.397 266.781,133.397 258.5,133.5C 250.531,132.869 246.531,128.869 246.5,121.5 Z"/></g>
<g><path style="opacity:0.998" fill="#ffffff" d="M 278.5,105.5 C 282.514,105.334 286.514,105.501 290.5,106C 293.008,106.115 295.008,107.115 296.5,109C 293.446,111.722 289.946,112.222 286,110.5C 284.605,110.78 283.438,111.447 282.5,112.5C 285.196,115.273 288.029,117.94 291,120.5C 294.186,126.919 292.353,131.085 285.5,133C 278.976,133.986 273.81,131.82 270,126.5C 269.274,120.355 270.774,119.855 274.5,125C 277,125.833 279.5,126.667 282,127.5C 283.434,127.07 284.601,126.236 285.5,125C 281.315,121.812 277.482,118.312 274,114.5C 272.9,110.031 274.4,107.031 278.5,105.5 Z"/></g>
<g><path style="opacity:0.246" fill="#ffffff" d="M 190.5,107.5 C 191.167,108.833 191.833,110.167 192.5,111.5C 192.217,112.289 191.717,112.956 191,113.5C 190.505,111.527 190.338,109.527 190.5,107.5 Z"/></g>
<g><path style="opacity:0.997" fill="#ffffff" d="M 236.5,122.5 C 238.5,123.167 240.5,123.833 242.5,124.5C 238.67,127.019 235.003,126.686 231.5,123.5C 229.406,113.502 233.406,109.002 243.5,110C 244.554,111.388 244.72,112.888 244,114.5C 241.76,117.402 238.927,119.569 235.5,121C 236.056,121.383 236.389,121.883 236.5,122.5 Z M 238.5,113.5 C 239.239,113.369 239.906,113.536 240.5,114C 238.91,115.046 237.41,116.213 236,117.5C 235.333,116.833 235.333,116.167 236,115.5C 236.995,114.934 237.828,114.267 238.5,113.5 Z"/></g>
<g><path style="opacity:0.933" fill="#ffffff" d="M 246.5,121.5 C 245.167,122.5 243.833,123.5 242.5,124.5C 240.5,123.833 238.5,123.167 236.5,122.5C 240.077,122.795 243.243,121.795 246,119.5C 246.464,120.094 246.631,120.761 246.5,121.5 Z"/></g>
<g><path style="opacity:0.996" fill="#ffffff" d="M 86.5,124.5 C 86.5,126.167 86.5,127.833 86.5,129.5C 85.8333,129.5 85.5,129.833 85.5,130.5C 56.8363,129.958 28.1697,129.624 -0.5,129.5C -0.5,127.833 -0.5,126.167 -0.5,124.5C 28.5734,124.048 57.5734,124.048 86.5,124.5 Z"/></g>
<g><path style="opacity:0.482" fill="#ffffff" d="M 86.5,124.5 C 87.1667,125.5 87.8333,126.5 88.5,127.5C 88.1667,128.5 87.5,129.167 86.5,129.5C 86.5,127.833 86.5,126.167 86.5,124.5 Z"/></g>
<g><path style="opacity:0.42" fill="#ffffff" d="M 102.5,142.5 C 102.918,143.222 103.584,143.722 104.5,144C 104.272,144.399 103.938,144.565 103.5,144.5C 101.576,144.289 101.243,143.623 102.5,142.5 Z"/></g>
</svg>
